<svg id="github" xmlns="http://www.w3.org/2000/svg" viewBox="0 0 45 45.01"><defs><style>.cls-1{fill:#747c81;}</style></defs><title>git</title><path id="logo-2" class="cls-1" d="M22.5,0A22.3,22.3,0,0,0,0,22.11H0a22.16,22.16,0,0,0,15.38,21c1.13.21,1.54-.48,1.54-1.07s0-1.91,0-3.75c-6.25,1.33-7.58-3-7.58-3a5.84,5.84,0,0,0-2.5-3.23c-2-1.37.16-1.35.16-1.35A4.73,4.73,0,0,1,10.42,33c2,3.38,5.26,2.4,6.55,1.84a4.69,4.69,0,0,1,1.42-3c-5-.55-10.25-2.45-10.25-10.92A8.45,8.45,0,0,1,10.46,15a7.75,7.75,0,0,1,.2-5.85s1.88-.59,6.19,2.27a21.47,21.47,0,0,1,11.25,0c4.27-2.86,6.16-2.27,6.16-2.27A8,8,0,0,1,34.48,15,8.52,8.52,0,0,1,36.79,21c0,8.49-5.26,10.36-10.27,10.9A5.26,5.26,0,0,1,28,36c0,2.95,0,5.33,0,6s.4,1.27,1.55,1.05A22.09,22.09,0,0,0,45,22.11,22.3,22.3,0,0,0,22.5,0Z"/></svg>