<svg xmlns="http://www.w3.org/2000/svg" viewBox="0 0 45 45"><defs><style>.cls-1{fill:#747c81;}</style></defs><title>linkedin</title><g id="lkdn"><path id="linkedin-2" class="cls-1" d="M22.5,0A22.5,22.5,0,1,0,45,22.5,22.5,22.5,0,0,0,22.5,0ZM16,34H10.48V17.53H16ZM13.22,15.28h0a2.86,2.86,0,1,1-.29-5.71h.36a2.86,2.86,0,1,1,.36,5.7ZM35.72,34H30.24V25.19c0-2.21-.79-3.72-2.77-3.72a3,3,0,0,0-2.82,2,3.75,3.75,0,0,0-.18,1.33V34H19s.08-14.94,0-16.49h5.48v2.34a5.42,5.42,0,0,1,4.94-2.72c3.61,0,6.31,2.35,6.31,7.42Z"/></g></svg>