<svg id="mail" xmlns="http://www.w3.org/2000/svg" viewBox="0 0 45 45"><defs><style>.cls-1{fill:#747c81;}.cls-2{fill:#f7f7f7;}</style></defs><title>mail</title><circle id="Ellipse_1" data-name="Ellipse 1" class="cls-1" cx="22.5" cy="22.5" r="22.5"/><g id="mail-2"><g id="Group_2" data-name="Group 2"><g id="Group_1" data-name="Group 1"><path id="Path_1" data-name="Path 1" class="cls-2" d="M36.39,13.44,27.7,22.07l8.69,8.63a2.55,2.55,0,0,0,.25-1.08V14.52A2.52,2.52,0,0,0,36.39,13.44Z"/></g></g><g id="Group_4" data-name="Group 4"><g id="Group_3" data-name="Group 3"><path id="Path_2" data-name="Path 2" class="cls-2" d="M34.12,12H10.52a2.52,2.52,0,0,0-1.08.25L20.54,23.3a2.52,2.52,0,0,0,3.56,0l11.1-11A2.55,2.55,0,0,0,34.12,12Z"/></g></g><g id="Group_6" data-name="Group 6"><g id="Group_5" data-name="Group 5"><path id="Path_3" data-name="Path 3" class="cls-2" d="M8.25,13.44A2.52,2.52,0,0,0,8,14.52v15.1a2.55,2.55,0,0,0,.25,1.08l8.69-8.63Z"/></g></g><g id="Group_8" data-name="Group 8"><g id="Group_7" data-name="Group 7"><path id="Path_4" data-name="Path 4" class="cls-2" d="M26.52,23.25l-1.23,1.23a4.19,4.19,0,0,1-5.93,0l-1.23-1.23L9.44,31.88a2.42,2.42,0,0,0,1.08.26h23.6a2.42,2.42,0,0,0,1.08-.26Z"/></g></g></g></svg>